<mxfile host="app.diagrams.net" agent="Mozilla/5.0 (Windows NT 10.0; Win64; x64) AppleWebKit/537.36 (KHTML, like Gecko) Chrome/133.0.0.0 Safari/537.36" version="26.0.15">
  <diagram name="Страница — 1" id="ZRPhA9mx_LeTKsSSEC7X">
    <mxGraphModel dx="292" dy="155" grid="1" gridSize="10" guides="1" tooltips="1" connect="1" arrows="1" fold="1" page="1" pageScale="1" pageWidth="827" pageHeight="1169" math="0" shadow="0">
      <root>
        <mxCell id="0" />
        <mxCell id="1" parent="0" />
        <mxCell id="uDm5nyWL3D9FvAwv8qHT-1" value="Аренда помещений" style="swimlane;whiteSpace=wrap;html=1;" vertex="1" parent="1">
          <mxGeometry x="360" y="120" width="160" height="130" as="geometry" />
        </mxCell>
        <mxCell id="uDm5nyWL3D9FvAwv8qHT-3" value="Регистрация" style="ellipse;whiteSpace=wrap;html=1;" vertex="1" parent="uDm5nyWL3D9FvAwv8qHT-1">
          <mxGeometry x="25" y="30" width="110" height="30" as="geometry" />
        </mxCell>
        <mxCell id="uDm5nyWL3D9FvAwv8qHT-4" value="Авторизация" style="ellipse;whiteSpace=wrap;html=1;" vertex="1" parent="uDm5nyWL3D9FvAwv8qHT-1">
          <mxGeometry x="25" y="80" width="110" height="30" as="geometry" />
        </mxCell>
        <mxCell id="uDm5nyWL3D9FvAwv8qHT-2" value="Гость" style="shape=umlActor;verticalLabelPosition=bottom;verticalAlign=top;html=1;outlineConnect=0;" vertex="1" parent="1">
          <mxGeometry x="270" y="155" width="30" height="60" as="geometry" />
        </mxCell>
        <mxCell id="uDm5nyWL3D9FvAwv8qHT-5" value="" style="endArrow=none;html=1;rounded=0;" edge="1" parent="1">
          <mxGeometry width="50" height="50" relative="1" as="geometry">
            <mxPoint x="300" y="170" as="sourcePoint" />
            <mxPoint x="380" y="160" as="targetPoint" />
          </mxGeometry>
        </mxCell>
        <mxCell id="uDm5nyWL3D9FvAwv8qHT-6" value="" style="endArrow=none;html=1;rounded=0;" edge="1" parent="1">
          <mxGeometry width="50" height="50" relative="1" as="geometry">
            <mxPoint x="300" y="190" as="sourcePoint" />
            <mxPoint x="380" y="210" as="targetPoint" />
          </mxGeometry>
        </mxCell>
      </root>
    </mxGraphModel>
  </diagram>
</mxfile>
